M48
;GenerationSoftware,Autodesk,EAGLE,9.6.2*%
;CreationDate,2025-12-17T06:59:29Z*%
FMAT,2
ICI,OFF
METRIC,TZ,000.000
T6C0.152
T5C0.305
T4C0.600
T3C0.889
T2C1.000
T1C3.175
%
G90
M71
T1
X3810Y40640
X3810Y3810
X58420Y3810
X58420Y40640
T2
X38100Y20320
X38100Y22860
X38100Y25400
T3
X7180Y8610
X32580Y36550
X35120Y34010
X35120Y36550
X37660Y36550
X40200Y34010
X40200Y36550
X42740Y34010
X42740Y36550
X45280Y34010
X45280Y36550
X37660Y11150
X47820Y34010
X47820Y36550
X50360Y34010
X50360Y36550
X7180Y11150
X9720Y8610
X9720Y11150
X12260Y8610
X12260Y11150
X14800Y8610
X14800Y11150
X17340Y8610
X17340Y11150
X19880Y8610
X19880Y11150
X22420Y8610
X22420Y11150
X24960Y8610
X24960Y11150
X27500Y8610
X27500Y11150
X30040Y8610
X30040Y11150
X32580Y8610
X32580Y11150
X35120Y8610
X35120Y11150
X37660Y8610
X37660Y34010
X40200Y8610
X40200Y11150
X42740Y8610
X42740Y11150
X45280Y8610
X45280Y11150
X47820Y8610
X47820Y11150
X50360Y8610
X50360Y11150
X7180Y34010
X7180Y36550
X9720Y34010
X9720Y36550
X12260Y34010
X12260Y36550
X14800Y34010
X14800Y36550
X17340Y34010
X17340Y36550
X19880Y34010
X19880Y36550
X22420Y34010
X22420Y36550
X24960Y34010
X24960Y36550
X27500Y34010
X27500Y36550
X30040Y34010
X30040Y36550
X32580Y34010
T4
X22860Y16510
T5
X29210Y20828
X28448Y25908
X57404Y24765
X41402Y22860
X24960Y31750
X5588Y24130
X6096Y21590
X25400Y16510
X21590Y24130
X17526Y26670
X41148Y25400
T6
X13970Y19558
X12446Y22098
X17018Y19812
M30