G04 EAGLE Gerber RS-274X export*
G75*
%MOMM*%
%FSLAX34Y34*%
%LPD*%
%INCopper Layer 15*%
%IPPOS*%
%AMOC8*
5,1,8,0,0,1.08239X$1,22.5*%
G01*
%ADD10C,4.191000*%
%ADD11C,1.400000*%
%ADD12C,1.244600*%
%ADD13C,0.609600*%
%ADD14C,0.457200*%
%ADD15C,0.904800*%

G36*
X618608Y2556D02*
X618608Y2556D01*
X618727Y2563D01*
X618765Y2576D01*
X618806Y2581D01*
X618916Y2624D01*
X619029Y2661D01*
X619064Y2683D01*
X619101Y2698D01*
X619197Y2767D01*
X619298Y2831D01*
X619326Y2861D01*
X619359Y2884D01*
X619435Y2976D01*
X619516Y3063D01*
X619536Y3098D01*
X619561Y3129D01*
X619612Y3237D01*
X619670Y3341D01*
X619680Y3381D01*
X619697Y3417D01*
X619719Y3534D01*
X619749Y3649D01*
X619753Y3709D01*
X619757Y3729D01*
X619755Y3750D01*
X619759Y3810D01*
X619759Y440690D01*
X619744Y440808D01*
X619737Y440927D01*
X619724Y440965D01*
X619719Y441006D01*
X619676Y441116D01*
X619639Y441229D01*
X619617Y441264D01*
X619602Y441301D01*
X619533Y441397D01*
X619469Y441498D01*
X619439Y441526D01*
X619416Y441559D01*
X619324Y441635D01*
X619237Y441716D01*
X619202Y441736D01*
X619171Y441761D01*
X619063Y441812D01*
X618959Y441870D01*
X618919Y441880D01*
X618883Y441897D01*
X618766Y441919D01*
X618651Y441949D01*
X618591Y441953D01*
X618571Y441957D01*
X618550Y441955D01*
X618490Y441959D01*
X3810Y441959D01*
X3692Y441944D01*
X3573Y441937D01*
X3535Y441924D01*
X3494Y441919D01*
X3384Y441876D01*
X3271Y441839D01*
X3236Y441817D01*
X3199Y441802D01*
X3103Y441733D01*
X3002Y441669D01*
X2974Y441639D01*
X2941Y441616D01*
X2865Y441524D01*
X2784Y441437D01*
X2764Y441402D01*
X2739Y441371D01*
X2688Y441263D01*
X2630Y441159D01*
X2620Y441119D01*
X2603Y441083D01*
X2581Y440966D01*
X2551Y440851D01*
X2547Y440791D01*
X2543Y440771D01*
X2545Y440750D01*
X2541Y440690D01*
X2541Y3810D01*
X2556Y3692D01*
X2563Y3573D01*
X2576Y3535D01*
X2581Y3494D01*
X2624Y3384D01*
X2661Y3271D01*
X2683Y3236D01*
X2698Y3199D01*
X2767Y3103D01*
X2831Y3002D01*
X2861Y2974D01*
X2884Y2941D01*
X2976Y2865D01*
X3063Y2784D01*
X3098Y2764D01*
X3129Y2739D01*
X3237Y2688D01*
X3341Y2630D01*
X3381Y2620D01*
X3417Y2603D01*
X3534Y2581D01*
X3649Y2551D01*
X3709Y2547D01*
X3729Y2543D01*
X3750Y2545D01*
X3810Y2541D01*
X618490Y2541D01*
X618608Y2556D01*
G37*
%LPC*%
G36*
X579779Y384174D02*
X579779Y384174D01*
X571610Y387558D01*
X565358Y393810D01*
X561974Y401979D01*
X561974Y410821D01*
X565358Y418990D01*
X571610Y425242D01*
X579779Y428626D01*
X588621Y428626D01*
X596790Y425242D01*
X603042Y418990D01*
X606426Y410821D01*
X606426Y401979D01*
X603042Y393810D01*
X596790Y387558D01*
X588621Y384174D01*
X579779Y384174D01*
G37*
%LPD*%
%LPC*%
G36*
X33679Y384174D02*
X33679Y384174D01*
X25510Y387558D01*
X19258Y393810D01*
X15874Y401979D01*
X15874Y410821D01*
X19258Y418990D01*
X25510Y425242D01*
X33679Y428626D01*
X42521Y428626D01*
X50690Y425242D01*
X56942Y418990D01*
X60326Y410821D01*
X60326Y401979D01*
X56942Y393810D01*
X50690Y387558D01*
X42521Y384174D01*
X33679Y384174D01*
G37*
%LPD*%
%LPC*%
G36*
X579779Y15874D02*
X579779Y15874D01*
X571610Y19258D01*
X565358Y25510D01*
X561974Y33679D01*
X561974Y42521D01*
X565358Y50690D01*
X571610Y56942D01*
X579779Y60326D01*
X588621Y60326D01*
X596790Y56942D01*
X603042Y50690D01*
X606426Y42521D01*
X606426Y33679D01*
X603042Y25510D01*
X596790Y19258D01*
X588621Y15874D01*
X579779Y15874D01*
G37*
%LPD*%
%LPC*%
G36*
X33679Y15874D02*
X33679Y15874D01*
X25510Y19258D01*
X19258Y25510D01*
X15874Y33679D01*
X15874Y42521D01*
X19258Y50690D01*
X25510Y56942D01*
X33679Y60326D01*
X42521Y60326D01*
X50690Y56942D01*
X56942Y50690D01*
X60326Y42521D01*
X60326Y33679D01*
X56942Y25510D01*
X50690Y19258D01*
X42521Y15874D01*
X33679Y15874D01*
G37*
%LPD*%
%LPC*%
G36*
X379355Y220329D02*
X379355Y220329D01*
X376315Y221588D01*
X373988Y223915D01*
X372729Y226955D01*
X372729Y230245D01*
X373988Y233285D01*
X376315Y235612D01*
X379355Y236871D01*
X382645Y236871D01*
X385685Y235612D01*
X388012Y233285D01*
X389271Y230245D01*
X389271Y226955D01*
X388012Y223915D01*
X385685Y221588D01*
X382645Y220329D01*
X379355Y220329D01*
G37*
%LPD*%
%LPC*%
G36*
X379355Y194929D02*
X379355Y194929D01*
X376315Y196188D01*
X373988Y198515D01*
X372729Y201555D01*
X372729Y204845D01*
X373988Y207885D01*
X376315Y210212D01*
X379355Y211471D01*
X382645Y211471D01*
X385685Y210212D01*
X388012Y207885D01*
X389271Y204845D01*
X389271Y201555D01*
X388012Y198515D01*
X385685Y196188D01*
X382645Y194929D01*
X379355Y194929D01*
G37*
%LPD*%
%LPC*%
G36*
X95709Y358006D02*
X95709Y358006D01*
X92955Y359147D01*
X90847Y361255D01*
X89706Y364009D01*
X89706Y366991D01*
X90847Y369745D01*
X92955Y371853D01*
X95709Y372994D01*
X98691Y372994D01*
X101445Y371853D01*
X103553Y369745D01*
X104694Y366991D01*
X104694Y364009D01*
X103553Y361255D01*
X101445Y359147D01*
X98691Y358006D01*
X95709Y358006D01*
G37*
%LPD*%
%LPC*%
G36*
X70309Y358006D02*
X70309Y358006D01*
X67555Y359147D01*
X65447Y361255D01*
X64306Y364009D01*
X64306Y366991D01*
X65447Y369745D01*
X67555Y371853D01*
X70309Y372994D01*
X73291Y372994D01*
X76045Y371853D01*
X78153Y369745D01*
X79294Y366991D01*
X79294Y364009D01*
X78153Y361255D01*
X76045Y359147D01*
X73291Y358006D01*
X70309Y358006D01*
G37*
%LPD*%
%LPC*%
G36*
X502109Y358006D02*
X502109Y358006D01*
X499355Y359147D01*
X497247Y361255D01*
X496106Y364009D01*
X496106Y366991D01*
X497247Y369745D01*
X499355Y371853D01*
X502109Y372994D01*
X505091Y372994D01*
X507845Y371853D01*
X509953Y369745D01*
X511094Y366991D01*
X511094Y364009D01*
X509953Y361255D01*
X507845Y359147D01*
X505091Y358006D01*
X502109Y358006D01*
G37*
%LPD*%
%LPC*%
G36*
X476709Y358006D02*
X476709Y358006D01*
X473955Y359147D01*
X471847Y361255D01*
X470706Y364009D01*
X470706Y366991D01*
X471847Y369745D01*
X473955Y371853D01*
X476709Y372994D01*
X479691Y372994D01*
X482445Y371853D01*
X484553Y369745D01*
X485694Y366991D01*
X485694Y364009D01*
X484553Y361255D01*
X482445Y359147D01*
X479691Y358006D01*
X476709Y358006D01*
G37*
%LPD*%
%LPC*%
G36*
X451309Y358006D02*
X451309Y358006D01*
X448555Y359147D01*
X446447Y361255D01*
X445306Y364009D01*
X445306Y366991D01*
X446447Y369745D01*
X448555Y371853D01*
X451309Y372994D01*
X454291Y372994D01*
X457045Y371853D01*
X459153Y369745D01*
X460294Y366991D01*
X460294Y364009D01*
X459153Y361255D01*
X457045Y359147D01*
X454291Y358006D01*
X451309Y358006D01*
G37*
%LPD*%
%LPC*%
G36*
X425909Y358006D02*
X425909Y358006D01*
X423155Y359147D01*
X421047Y361255D01*
X419906Y364009D01*
X419906Y366991D01*
X421047Y369745D01*
X423155Y371853D01*
X425909Y372994D01*
X428891Y372994D01*
X431645Y371853D01*
X433753Y369745D01*
X434894Y366991D01*
X434894Y364009D01*
X433753Y361255D01*
X431645Y359147D01*
X428891Y358006D01*
X425909Y358006D01*
G37*
%LPD*%
%LPC*%
G36*
X400509Y358006D02*
X400509Y358006D01*
X397755Y359147D01*
X395647Y361255D01*
X394506Y364009D01*
X394506Y366991D01*
X395647Y369745D01*
X397755Y371853D01*
X400509Y372994D01*
X403491Y372994D01*
X406245Y371853D01*
X408353Y369745D01*
X409494Y366991D01*
X409494Y364009D01*
X408353Y361255D01*
X406245Y359147D01*
X403491Y358006D01*
X400509Y358006D01*
G37*
%LPD*%
%LPC*%
G36*
X375109Y358006D02*
X375109Y358006D01*
X372355Y359147D01*
X370247Y361255D01*
X369106Y364009D01*
X369106Y366991D01*
X370247Y369745D01*
X372355Y371853D01*
X375109Y372994D01*
X378091Y372994D01*
X380845Y371853D01*
X382953Y369745D01*
X384094Y366991D01*
X384094Y364009D01*
X382953Y361255D01*
X380845Y359147D01*
X378091Y358006D01*
X375109Y358006D01*
G37*
%LPD*%
%LPC*%
G36*
X349709Y358006D02*
X349709Y358006D01*
X346955Y359147D01*
X344847Y361255D01*
X343706Y364009D01*
X343706Y366991D01*
X344847Y369745D01*
X346955Y371853D01*
X349709Y372994D01*
X352691Y372994D01*
X355445Y371853D01*
X357553Y369745D01*
X358694Y366991D01*
X358694Y364009D01*
X357553Y361255D01*
X355445Y359147D01*
X352691Y358006D01*
X349709Y358006D01*
G37*
%LPD*%
%LPC*%
G36*
X324309Y358006D02*
X324309Y358006D01*
X321555Y359147D01*
X319447Y361255D01*
X318306Y364009D01*
X318306Y366991D01*
X319447Y369745D01*
X321555Y371853D01*
X324309Y372994D01*
X327291Y372994D01*
X330045Y371853D01*
X332153Y369745D01*
X333294Y366991D01*
X333294Y364009D01*
X332153Y361255D01*
X330045Y359147D01*
X327291Y358006D01*
X324309Y358006D01*
G37*
%LPD*%
%LPC*%
G36*
X298909Y358006D02*
X298909Y358006D01*
X296155Y359147D01*
X294047Y361255D01*
X292906Y364009D01*
X292906Y366991D01*
X294047Y369745D01*
X296155Y371853D01*
X298909Y372994D01*
X301891Y372994D01*
X304645Y371853D01*
X306753Y369745D01*
X307894Y366991D01*
X307894Y364009D01*
X306753Y361255D01*
X304645Y359147D01*
X301891Y358006D01*
X298909Y358006D01*
G37*
%LPD*%
%LPC*%
G36*
X273509Y358006D02*
X273509Y358006D01*
X270755Y359147D01*
X268647Y361255D01*
X267506Y364009D01*
X267506Y366991D01*
X268647Y369745D01*
X270755Y371853D01*
X273509Y372994D01*
X276491Y372994D01*
X279245Y371853D01*
X281353Y369745D01*
X282494Y366991D01*
X282494Y364009D01*
X281353Y361255D01*
X279245Y359147D01*
X276491Y358006D01*
X273509Y358006D01*
G37*
%LPD*%
%LPC*%
G36*
X248109Y358006D02*
X248109Y358006D01*
X245355Y359147D01*
X243247Y361255D01*
X242106Y364009D01*
X242106Y366991D01*
X243247Y369745D01*
X245355Y371853D01*
X248109Y372994D01*
X251091Y372994D01*
X253845Y371853D01*
X255953Y369745D01*
X257094Y366991D01*
X257094Y364009D01*
X255953Y361255D01*
X253845Y359147D01*
X251091Y358006D01*
X248109Y358006D01*
G37*
%LPD*%
%LPC*%
G36*
X222709Y358006D02*
X222709Y358006D01*
X219955Y359147D01*
X217847Y361255D01*
X216706Y364009D01*
X216706Y366991D01*
X217847Y369745D01*
X219955Y371853D01*
X222709Y372994D01*
X225691Y372994D01*
X228445Y371853D01*
X230553Y369745D01*
X231694Y366991D01*
X231694Y364009D01*
X230553Y361255D01*
X228445Y359147D01*
X225691Y358006D01*
X222709Y358006D01*
G37*
%LPD*%
%LPC*%
G36*
X197309Y358006D02*
X197309Y358006D01*
X194555Y359147D01*
X192447Y361255D01*
X191306Y364009D01*
X191306Y366991D01*
X192447Y369745D01*
X194555Y371853D01*
X197309Y372994D01*
X200291Y372994D01*
X203045Y371853D01*
X205153Y369745D01*
X206294Y366991D01*
X206294Y364009D01*
X205153Y361255D01*
X203045Y359147D01*
X200291Y358006D01*
X197309Y358006D01*
G37*
%LPD*%
%LPC*%
G36*
X171909Y358006D02*
X171909Y358006D01*
X169155Y359147D01*
X167047Y361255D01*
X165906Y364009D01*
X165906Y366991D01*
X167047Y369745D01*
X169155Y371853D01*
X171909Y372994D01*
X174891Y372994D01*
X177645Y371853D01*
X179753Y369745D01*
X180894Y366991D01*
X180894Y364009D01*
X179753Y361255D01*
X177645Y359147D01*
X174891Y358006D01*
X171909Y358006D01*
G37*
%LPD*%
%LPC*%
G36*
X146509Y358006D02*
X146509Y358006D01*
X143755Y359147D01*
X141647Y361255D01*
X140506Y364009D01*
X140506Y366991D01*
X141647Y369745D01*
X143755Y371853D01*
X146509Y372994D01*
X149491Y372994D01*
X152245Y371853D01*
X154353Y369745D01*
X155494Y366991D01*
X155494Y364009D01*
X154353Y361255D01*
X152245Y359147D01*
X149491Y358006D01*
X146509Y358006D01*
G37*
%LPD*%
%LPC*%
G36*
X121109Y358006D02*
X121109Y358006D01*
X118355Y359147D01*
X116247Y361255D01*
X115106Y364009D01*
X115106Y366991D01*
X116247Y369745D01*
X118355Y371853D01*
X121109Y372994D01*
X124091Y372994D01*
X126845Y371853D01*
X128953Y369745D01*
X130094Y366991D01*
X130094Y364009D01*
X128953Y361255D01*
X126845Y359147D01*
X124091Y358006D01*
X121109Y358006D01*
G37*
%LPD*%
%LPC*%
G36*
X95709Y332606D02*
X95709Y332606D01*
X92955Y333747D01*
X90847Y335855D01*
X89706Y338609D01*
X89706Y341591D01*
X90847Y344345D01*
X92955Y346453D01*
X95709Y347594D01*
X98691Y347594D01*
X101445Y346453D01*
X103553Y344345D01*
X104694Y341591D01*
X104694Y338609D01*
X103553Y335855D01*
X101445Y333747D01*
X98691Y332606D01*
X95709Y332606D01*
G37*
%LPD*%
%LPC*%
G36*
X70309Y332606D02*
X70309Y332606D01*
X67555Y333747D01*
X65447Y335855D01*
X64306Y338609D01*
X64306Y341591D01*
X65447Y344345D01*
X67555Y346453D01*
X70309Y347594D01*
X73291Y347594D01*
X76045Y346453D01*
X78153Y344345D01*
X79294Y341591D01*
X79294Y338609D01*
X78153Y335855D01*
X76045Y333747D01*
X73291Y332606D01*
X70309Y332606D01*
G37*
%LPD*%
%LPC*%
G36*
X502109Y332606D02*
X502109Y332606D01*
X499355Y333747D01*
X497247Y335855D01*
X496106Y338609D01*
X496106Y341591D01*
X497247Y344345D01*
X499355Y346453D01*
X502109Y347594D01*
X505091Y347594D01*
X507845Y346453D01*
X509953Y344345D01*
X511094Y341591D01*
X511094Y338609D01*
X509953Y335855D01*
X507845Y333747D01*
X505091Y332606D01*
X502109Y332606D01*
G37*
%LPD*%
%LPC*%
G36*
X476709Y332606D02*
X476709Y332606D01*
X473955Y333747D01*
X471847Y335855D01*
X470706Y338609D01*
X470706Y341591D01*
X471847Y344345D01*
X473955Y346453D01*
X476709Y347594D01*
X479691Y347594D01*
X482445Y346453D01*
X484553Y344345D01*
X485694Y341591D01*
X485694Y338609D01*
X484553Y335855D01*
X482445Y333747D01*
X479691Y332606D01*
X476709Y332606D01*
G37*
%LPD*%
%LPC*%
G36*
X451309Y332606D02*
X451309Y332606D01*
X448555Y333747D01*
X446447Y335855D01*
X445306Y338609D01*
X445306Y341591D01*
X446447Y344345D01*
X448555Y346453D01*
X451309Y347594D01*
X454291Y347594D01*
X457045Y346453D01*
X459153Y344345D01*
X460294Y341591D01*
X460294Y338609D01*
X459153Y335855D01*
X457045Y333747D01*
X454291Y332606D01*
X451309Y332606D01*
G37*
%LPD*%
%LPC*%
G36*
X425909Y332606D02*
X425909Y332606D01*
X423155Y333747D01*
X421047Y335855D01*
X419906Y338609D01*
X419906Y341591D01*
X421047Y344345D01*
X423155Y346453D01*
X425909Y347594D01*
X428891Y347594D01*
X431645Y346453D01*
X433753Y344345D01*
X434894Y341591D01*
X434894Y338609D01*
X433753Y335855D01*
X431645Y333747D01*
X428891Y332606D01*
X425909Y332606D01*
G37*
%LPD*%
%LPC*%
G36*
X400509Y332606D02*
X400509Y332606D01*
X397755Y333747D01*
X395647Y335855D01*
X394506Y338609D01*
X394506Y341591D01*
X395647Y344345D01*
X397755Y346453D01*
X400509Y347594D01*
X403491Y347594D01*
X406245Y346453D01*
X408353Y344345D01*
X409494Y341591D01*
X409494Y338609D01*
X408353Y335855D01*
X406245Y333747D01*
X403491Y332606D01*
X400509Y332606D01*
G37*
%LPD*%
%LPC*%
G36*
X375109Y332606D02*
X375109Y332606D01*
X372355Y333747D01*
X370247Y335855D01*
X369106Y338609D01*
X369106Y341591D01*
X370247Y344345D01*
X372355Y346453D01*
X375109Y347594D01*
X378091Y347594D01*
X380845Y346453D01*
X382953Y344345D01*
X384094Y341591D01*
X384094Y338609D01*
X382953Y335855D01*
X380845Y333747D01*
X378091Y332606D01*
X375109Y332606D01*
G37*
%LPD*%
%LPC*%
G36*
X349709Y332606D02*
X349709Y332606D01*
X346955Y333747D01*
X344847Y335855D01*
X343706Y338609D01*
X343706Y341591D01*
X344847Y344345D01*
X346955Y346453D01*
X349709Y347594D01*
X352691Y347594D01*
X355445Y346453D01*
X357553Y344345D01*
X358694Y341591D01*
X358694Y338609D01*
X357553Y335855D01*
X355445Y333747D01*
X352691Y332606D01*
X349709Y332606D01*
G37*
%LPD*%
%LPC*%
G36*
X324309Y332606D02*
X324309Y332606D01*
X321555Y333747D01*
X319447Y335855D01*
X318306Y338609D01*
X318306Y341591D01*
X319447Y344345D01*
X321555Y346453D01*
X324309Y347594D01*
X327291Y347594D01*
X330045Y346453D01*
X332153Y344345D01*
X333294Y341591D01*
X333294Y338609D01*
X332153Y335855D01*
X330045Y333747D01*
X327291Y332606D01*
X324309Y332606D01*
G37*
%LPD*%
%LPC*%
G36*
X298909Y332606D02*
X298909Y332606D01*
X296155Y333747D01*
X294047Y335855D01*
X292906Y338609D01*
X292906Y341591D01*
X294047Y344345D01*
X296155Y346453D01*
X298909Y347594D01*
X301891Y347594D01*
X304645Y346453D01*
X306753Y344345D01*
X307894Y341591D01*
X307894Y338609D01*
X306753Y335855D01*
X304645Y333747D01*
X301891Y332606D01*
X298909Y332606D01*
G37*
%LPD*%
%LPC*%
G36*
X273509Y332606D02*
X273509Y332606D01*
X270755Y333747D01*
X268647Y335855D01*
X267506Y338609D01*
X267506Y341591D01*
X268647Y344345D01*
X270755Y346453D01*
X273509Y347594D01*
X276491Y347594D01*
X279245Y346453D01*
X281353Y344345D01*
X282494Y341591D01*
X282494Y338609D01*
X281353Y335855D01*
X279245Y333747D01*
X276491Y332606D01*
X273509Y332606D01*
G37*
%LPD*%
%LPC*%
G36*
X248109Y332606D02*
X248109Y332606D01*
X245355Y333747D01*
X243247Y335855D01*
X242106Y338609D01*
X242106Y341591D01*
X243247Y344345D01*
X245355Y346453D01*
X248109Y347594D01*
X251091Y347594D01*
X253845Y346453D01*
X255953Y344345D01*
X257094Y341591D01*
X257094Y338609D01*
X255953Y335855D01*
X253845Y333747D01*
X251091Y332606D01*
X248109Y332606D01*
G37*
%LPD*%
%LPC*%
G36*
X222709Y332606D02*
X222709Y332606D01*
X219955Y333747D01*
X217847Y335855D01*
X216706Y338609D01*
X216706Y341591D01*
X217847Y344345D01*
X219955Y346453D01*
X222709Y347594D01*
X225691Y347594D01*
X228445Y346453D01*
X230553Y344345D01*
X231694Y341591D01*
X231694Y338609D01*
X230553Y335855D01*
X228445Y333747D01*
X225691Y332606D01*
X222709Y332606D01*
G37*
%LPD*%
%LPC*%
G36*
X197309Y332606D02*
X197309Y332606D01*
X194555Y333747D01*
X192447Y335855D01*
X191306Y338609D01*
X191306Y341591D01*
X192447Y344345D01*
X194555Y346453D01*
X197309Y347594D01*
X200291Y347594D01*
X203045Y346453D01*
X205153Y344345D01*
X206294Y341591D01*
X206294Y338609D01*
X205153Y335855D01*
X203045Y333747D01*
X200291Y332606D01*
X197309Y332606D01*
G37*
%LPD*%
%LPC*%
G36*
X146509Y332606D02*
X146509Y332606D01*
X143755Y333747D01*
X141647Y335855D01*
X140506Y338609D01*
X140506Y341591D01*
X141647Y344345D01*
X143755Y346453D01*
X146509Y347594D01*
X149491Y347594D01*
X152245Y346453D01*
X154353Y344345D01*
X155494Y341591D01*
X155494Y338609D01*
X154353Y335855D01*
X152245Y333747D01*
X149491Y332606D01*
X146509Y332606D01*
G37*
%LPD*%
%LPC*%
G36*
X121109Y332606D02*
X121109Y332606D01*
X118355Y333747D01*
X116247Y335855D01*
X115106Y338609D01*
X115106Y341591D01*
X116247Y344345D01*
X118355Y346453D01*
X121109Y347594D01*
X124091Y347594D01*
X126845Y346453D01*
X128953Y344345D01*
X130094Y341591D01*
X130094Y338609D01*
X128953Y335855D01*
X126845Y333747D01*
X124091Y332606D01*
X121109Y332606D01*
G37*
%LPD*%
%LPC*%
G36*
X171909Y78606D02*
X171909Y78606D01*
X169155Y79747D01*
X167047Y81855D01*
X165906Y84609D01*
X165906Y87591D01*
X167047Y90345D01*
X169155Y92453D01*
X171909Y93594D01*
X174891Y93594D01*
X177645Y92453D01*
X179753Y90345D01*
X180894Y87591D01*
X180894Y84609D01*
X179753Y81855D01*
X177645Y79747D01*
X174891Y78606D01*
X171909Y78606D01*
G37*
%LPD*%
%LPC*%
G36*
X146509Y78606D02*
X146509Y78606D01*
X143755Y79747D01*
X141647Y81855D01*
X140506Y84609D01*
X140506Y87591D01*
X141647Y90345D01*
X143755Y92453D01*
X146509Y93594D01*
X149491Y93594D01*
X152245Y92453D01*
X154353Y90345D01*
X155494Y87591D01*
X155494Y84609D01*
X154353Y81855D01*
X152245Y79747D01*
X149491Y78606D01*
X146509Y78606D01*
G37*
%LPD*%
%LPC*%
G36*
X121109Y78606D02*
X121109Y78606D01*
X118355Y79747D01*
X116247Y81855D01*
X115106Y84609D01*
X115106Y87591D01*
X116247Y90345D01*
X118355Y92453D01*
X121109Y93594D01*
X124091Y93594D01*
X126845Y92453D01*
X128953Y90345D01*
X130094Y87591D01*
X130094Y84609D01*
X128953Y81855D01*
X126845Y79747D01*
X124091Y78606D01*
X121109Y78606D01*
G37*
%LPD*%
%LPC*%
G36*
X95709Y78606D02*
X95709Y78606D01*
X92955Y79747D01*
X90847Y81855D01*
X89706Y84609D01*
X89706Y87591D01*
X90847Y90345D01*
X92955Y92453D01*
X95709Y93594D01*
X98691Y93594D01*
X101445Y92453D01*
X103553Y90345D01*
X104694Y87591D01*
X104694Y84609D01*
X103553Y81855D01*
X101445Y79747D01*
X98691Y78606D01*
X95709Y78606D01*
G37*
%LPD*%
%LPC*%
G36*
X70309Y78606D02*
X70309Y78606D01*
X67555Y79747D01*
X65447Y81855D01*
X64306Y84609D01*
X64306Y87591D01*
X65447Y90345D01*
X67555Y92453D01*
X70309Y93594D01*
X73291Y93594D01*
X76045Y92453D01*
X78153Y90345D01*
X79294Y87591D01*
X79294Y84609D01*
X78153Y81855D01*
X76045Y79747D01*
X73291Y78606D01*
X70309Y78606D01*
G37*
%LPD*%
%LPC*%
G36*
X324309Y78606D02*
X324309Y78606D01*
X321555Y79747D01*
X319447Y81855D01*
X318306Y84609D01*
X318306Y87591D01*
X319447Y90345D01*
X321555Y92453D01*
X324309Y93594D01*
X327291Y93594D01*
X330045Y92453D01*
X332153Y90345D01*
X333294Y87591D01*
X333294Y84609D01*
X332153Y81855D01*
X330045Y79747D01*
X327291Y78606D01*
X324309Y78606D01*
G37*
%LPD*%
%LPC*%
G36*
X171909Y332606D02*
X171909Y332606D01*
X169155Y333747D01*
X167047Y335855D01*
X165906Y338609D01*
X165906Y341591D01*
X167047Y344345D01*
X169155Y346453D01*
X171909Y347594D01*
X174891Y347594D01*
X177645Y346453D01*
X179753Y344345D01*
X180894Y341591D01*
X180894Y338609D01*
X179753Y335855D01*
X177645Y333747D01*
X174891Y332606D01*
X171909Y332606D01*
G37*
%LPD*%
%LPC*%
G36*
X476709Y104006D02*
X476709Y104006D01*
X473955Y105147D01*
X471847Y107255D01*
X470706Y110009D01*
X470706Y112991D01*
X471847Y115745D01*
X473955Y117853D01*
X476709Y118994D01*
X479691Y118994D01*
X482445Y117853D01*
X484553Y115745D01*
X485694Y112991D01*
X485694Y110009D01*
X484553Y107255D01*
X482445Y105147D01*
X479691Y104006D01*
X476709Y104006D01*
G37*
%LPD*%
%LPC*%
G36*
X451309Y104006D02*
X451309Y104006D01*
X448555Y105147D01*
X446447Y107255D01*
X445306Y110009D01*
X445306Y112991D01*
X446447Y115745D01*
X448555Y117853D01*
X451309Y118994D01*
X454291Y118994D01*
X457045Y117853D01*
X459153Y115745D01*
X460294Y112991D01*
X460294Y110009D01*
X459153Y107255D01*
X457045Y105147D01*
X454291Y104006D01*
X451309Y104006D01*
G37*
%LPD*%
%LPC*%
G36*
X502109Y104006D02*
X502109Y104006D01*
X499355Y105147D01*
X497247Y107255D01*
X496106Y110009D01*
X496106Y112991D01*
X497247Y115745D01*
X499355Y117853D01*
X502109Y118994D01*
X505091Y118994D01*
X507845Y117853D01*
X509953Y115745D01*
X511094Y112991D01*
X511094Y110009D01*
X509953Y107255D01*
X507845Y105147D01*
X505091Y104006D01*
X502109Y104006D01*
G37*
%LPD*%
%LPC*%
G36*
X95709Y104006D02*
X95709Y104006D01*
X92955Y105147D01*
X90847Y107255D01*
X89706Y110009D01*
X89706Y112991D01*
X90847Y115745D01*
X92955Y117853D01*
X95709Y118994D01*
X98691Y118994D01*
X101445Y117853D01*
X103553Y115745D01*
X104694Y112991D01*
X104694Y110009D01*
X103553Y107255D01*
X101445Y105147D01*
X98691Y104006D01*
X95709Y104006D01*
G37*
%LPD*%
%LPC*%
G36*
X70309Y104006D02*
X70309Y104006D01*
X67555Y105147D01*
X65447Y107255D01*
X64306Y110009D01*
X64306Y112991D01*
X65447Y115745D01*
X67555Y117853D01*
X70309Y118994D01*
X73291Y118994D01*
X76045Y117853D01*
X78153Y115745D01*
X79294Y112991D01*
X79294Y110009D01*
X78153Y107255D01*
X76045Y105147D01*
X73291Y104006D01*
X70309Y104006D01*
G37*
%LPD*%
%LPC*%
G36*
X425909Y104006D02*
X425909Y104006D01*
X423155Y105147D01*
X421047Y107255D01*
X419906Y110009D01*
X419906Y112991D01*
X421047Y115745D01*
X423155Y117853D01*
X425909Y118994D01*
X428891Y118994D01*
X431645Y117853D01*
X433753Y115745D01*
X434894Y112991D01*
X434894Y110009D01*
X433753Y107255D01*
X431645Y105147D01*
X428891Y104006D01*
X425909Y104006D01*
G37*
%LPD*%
%LPC*%
G36*
X400509Y104006D02*
X400509Y104006D01*
X397755Y105147D01*
X395647Y107255D01*
X394506Y110009D01*
X394506Y112991D01*
X395647Y115745D01*
X397755Y117853D01*
X400509Y118994D01*
X403491Y118994D01*
X406245Y117853D01*
X408353Y115745D01*
X409494Y112991D01*
X409494Y110009D01*
X408353Y107255D01*
X406245Y105147D01*
X403491Y104006D01*
X400509Y104006D01*
G37*
%LPD*%
%LPC*%
G36*
X375109Y104006D02*
X375109Y104006D01*
X372355Y105147D01*
X370247Y107255D01*
X369106Y110009D01*
X369106Y112991D01*
X370247Y115745D01*
X372355Y117853D01*
X375109Y118994D01*
X378091Y118994D01*
X380845Y117853D01*
X382953Y115745D01*
X384094Y112991D01*
X384094Y110009D01*
X382953Y107255D01*
X380845Y105147D01*
X378091Y104006D01*
X375109Y104006D01*
G37*
%LPD*%
%LPC*%
G36*
X349709Y104006D02*
X349709Y104006D01*
X346955Y105147D01*
X344847Y107255D01*
X343706Y110009D01*
X343706Y112991D01*
X344847Y115745D01*
X346955Y117853D01*
X349709Y118994D01*
X352691Y118994D01*
X355445Y117853D01*
X357553Y115745D01*
X358694Y112991D01*
X358694Y110009D01*
X357553Y107255D01*
X355445Y105147D01*
X352691Y104006D01*
X349709Y104006D01*
G37*
%LPD*%
%LPC*%
G36*
X324309Y104006D02*
X324309Y104006D01*
X321555Y105147D01*
X319447Y107255D01*
X318306Y110009D01*
X318306Y112991D01*
X319447Y115745D01*
X321555Y117853D01*
X324309Y118994D01*
X327291Y118994D01*
X330045Y117853D01*
X332153Y115745D01*
X333294Y112991D01*
X333294Y110009D01*
X332153Y107255D01*
X330045Y105147D01*
X327291Y104006D01*
X324309Y104006D01*
G37*
%LPD*%
%LPC*%
G36*
X298909Y104006D02*
X298909Y104006D01*
X296155Y105147D01*
X294047Y107255D01*
X292906Y110009D01*
X292906Y112991D01*
X294047Y115745D01*
X296155Y117853D01*
X298909Y118994D01*
X301891Y118994D01*
X304645Y117853D01*
X306753Y115745D01*
X307894Y112991D01*
X307894Y110009D01*
X306753Y107255D01*
X304645Y105147D01*
X301891Y104006D01*
X298909Y104006D01*
G37*
%LPD*%
%LPC*%
G36*
X273509Y104006D02*
X273509Y104006D01*
X270755Y105147D01*
X268647Y107255D01*
X267506Y110009D01*
X267506Y112991D01*
X268647Y115745D01*
X270755Y117853D01*
X273509Y118994D01*
X276491Y118994D01*
X279245Y117853D01*
X281353Y115745D01*
X282494Y112991D01*
X282494Y110009D01*
X281353Y107255D01*
X279245Y105147D01*
X276491Y104006D01*
X273509Y104006D01*
G37*
%LPD*%
%LPC*%
G36*
X248109Y104006D02*
X248109Y104006D01*
X245355Y105147D01*
X243247Y107255D01*
X242106Y110009D01*
X242106Y112991D01*
X243247Y115745D01*
X245355Y117853D01*
X248109Y118994D01*
X251091Y118994D01*
X253845Y117853D01*
X255953Y115745D01*
X257094Y112991D01*
X257094Y110009D01*
X255953Y107255D01*
X253845Y105147D01*
X251091Y104006D01*
X248109Y104006D01*
G37*
%LPD*%
%LPC*%
G36*
X197309Y104006D02*
X197309Y104006D01*
X194555Y105147D01*
X192447Y107255D01*
X191306Y110009D01*
X191306Y112991D01*
X192447Y115745D01*
X194555Y117853D01*
X197309Y118994D01*
X200291Y118994D01*
X203045Y117853D01*
X205153Y115745D01*
X206294Y112991D01*
X206294Y110009D01*
X205153Y107255D01*
X203045Y105147D01*
X200291Y104006D01*
X197309Y104006D01*
G37*
%LPD*%
%LPC*%
G36*
X146509Y104006D02*
X146509Y104006D01*
X143755Y105147D01*
X141647Y107255D01*
X140506Y110009D01*
X140506Y112991D01*
X141647Y115745D01*
X143755Y117853D01*
X146509Y118994D01*
X149491Y118994D01*
X152245Y117853D01*
X154353Y115745D01*
X155494Y112991D01*
X155494Y110009D01*
X154353Y107255D01*
X152245Y105147D01*
X149491Y104006D01*
X146509Y104006D01*
G37*
%LPD*%
%LPC*%
G36*
X121109Y104006D02*
X121109Y104006D01*
X118355Y105147D01*
X116247Y107255D01*
X115106Y110009D01*
X115106Y112991D01*
X116247Y115745D01*
X118355Y117853D01*
X121109Y118994D01*
X124091Y118994D01*
X126845Y117853D01*
X128953Y115745D01*
X130094Y112991D01*
X130094Y110009D01*
X128953Y107255D01*
X126845Y105147D01*
X124091Y104006D01*
X121109Y104006D01*
G37*
%LPD*%
%LPC*%
G36*
X502109Y78606D02*
X502109Y78606D01*
X499355Y79747D01*
X497247Y81855D01*
X496106Y84609D01*
X496106Y87591D01*
X497247Y90345D01*
X499355Y92453D01*
X502109Y93594D01*
X505091Y93594D01*
X507845Y92453D01*
X509953Y90345D01*
X511094Y87591D01*
X511094Y84609D01*
X509953Y81855D01*
X507845Y79747D01*
X505091Y78606D01*
X502109Y78606D01*
G37*
%LPD*%
%LPC*%
G36*
X476709Y78606D02*
X476709Y78606D01*
X473955Y79747D01*
X471847Y81855D01*
X470706Y84609D01*
X470706Y87591D01*
X471847Y90345D01*
X473955Y92453D01*
X476709Y93594D01*
X479691Y93594D01*
X482445Y92453D01*
X484553Y90345D01*
X485694Y87591D01*
X485694Y84609D01*
X484553Y81855D01*
X482445Y79747D01*
X479691Y78606D01*
X476709Y78606D01*
G37*
%LPD*%
%LPC*%
G36*
X451309Y78606D02*
X451309Y78606D01*
X448555Y79747D01*
X446447Y81855D01*
X445306Y84609D01*
X445306Y87591D01*
X446447Y90345D01*
X448555Y92453D01*
X451309Y93594D01*
X454291Y93594D01*
X457045Y92453D01*
X459153Y90345D01*
X460294Y87591D01*
X460294Y84609D01*
X459153Y81855D01*
X457045Y79747D01*
X454291Y78606D01*
X451309Y78606D01*
G37*
%LPD*%
%LPC*%
G36*
X425909Y78606D02*
X425909Y78606D01*
X423155Y79747D01*
X421047Y81855D01*
X419906Y84609D01*
X419906Y87591D01*
X421047Y90345D01*
X423155Y92453D01*
X425909Y93594D01*
X428891Y93594D01*
X431645Y92453D01*
X433753Y90345D01*
X434894Y87591D01*
X434894Y84609D01*
X433753Y81855D01*
X431645Y79747D01*
X428891Y78606D01*
X425909Y78606D01*
G37*
%LPD*%
%LPC*%
G36*
X400509Y78606D02*
X400509Y78606D01*
X397755Y79747D01*
X395647Y81855D01*
X394506Y84609D01*
X394506Y87591D01*
X395647Y90345D01*
X397755Y92453D01*
X400509Y93594D01*
X403491Y93594D01*
X406245Y92453D01*
X408353Y90345D01*
X409494Y87591D01*
X409494Y84609D01*
X408353Y81855D01*
X406245Y79747D01*
X403491Y78606D01*
X400509Y78606D01*
G37*
%LPD*%
%LPC*%
G36*
X375109Y78606D02*
X375109Y78606D01*
X372355Y79747D01*
X370247Y81855D01*
X369106Y84609D01*
X369106Y87591D01*
X370247Y90345D01*
X372355Y92453D01*
X375109Y93594D01*
X378091Y93594D01*
X380845Y92453D01*
X382953Y90345D01*
X384094Y87591D01*
X384094Y84609D01*
X382953Y81855D01*
X380845Y79747D01*
X378091Y78606D01*
X375109Y78606D01*
G37*
%LPD*%
%LPC*%
G36*
X349709Y78606D02*
X349709Y78606D01*
X346955Y79747D01*
X344847Y81855D01*
X343706Y84609D01*
X343706Y87591D01*
X344847Y90345D01*
X346955Y92453D01*
X349709Y93594D01*
X352691Y93594D01*
X355445Y92453D01*
X357553Y90345D01*
X358694Y87591D01*
X358694Y84609D01*
X357553Y81855D01*
X355445Y79747D01*
X352691Y78606D01*
X349709Y78606D01*
G37*
%LPD*%
%LPC*%
G36*
X171909Y104006D02*
X171909Y104006D01*
X169155Y105147D01*
X167047Y107255D01*
X165906Y110009D01*
X165906Y112991D01*
X167047Y115745D01*
X169155Y117853D01*
X171909Y118994D01*
X174891Y118994D01*
X177645Y117853D01*
X179753Y115745D01*
X180894Y112991D01*
X180894Y110009D01*
X179753Y107255D01*
X177645Y105147D01*
X174891Y104006D01*
X171909Y104006D01*
G37*
%LPD*%
%LPC*%
G36*
X298909Y78606D02*
X298909Y78606D01*
X296155Y79747D01*
X294047Y81855D01*
X292906Y84609D01*
X292906Y87591D01*
X294047Y90345D01*
X296155Y92453D01*
X298909Y93594D01*
X301891Y93594D01*
X304645Y92453D01*
X306753Y90345D01*
X307894Y87591D01*
X307894Y84609D01*
X306753Y81855D01*
X304645Y79747D01*
X301891Y78606D01*
X298909Y78606D01*
G37*
%LPD*%
%LPC*%
G36*
X273509Y78606D02*
X273509Y78606D01*
X270755Y79747D01*
X268647Y81855D01*
X267506Y84609D01*
X267506Y87591D01*
X268647Y90345D01*
X270755Y92453D01*
X273509Y93594D01*
X276491Y93594D01*
X279245Y92453D01*
X281353Y90345D01*
X282494Y87591D01*
X282494Y84609D01*
X281353Y81855D01*
X279245Y79747D01*
X276491Y78606D01*
X273509Y78606D01*
G37*
%LPD*%
%LPC*%
G36*
X248109Y78606D02*
X248109Y78606D01*
X245355Y79747D01*
X243247Y81855D01*
X242106Y84609D01*
X242106Y87591D01*
X243247Y90345D01*
X245355Y92453D01*
X248109Y93594D01*
X251091Y93594D01*
X253845Y92453D01*
X255953Y90345D01*
X257094Y87591D01*
X257094Y84609D01*
X255953Y81855D01*
X253845Y79747D01*
X251091Y78606D01*
X248109Y78606D01*
G37*
%LPD*%
%LPC*%
G36*
X222709Y78606D02*
X222709Y78606D01*
X219955Y79747D01*
X217847Y81855D01*
X216706Y84609D01*
X216706Y87591D01*
X217847Y90345D01*
X219955Y92453D01*
X222709Y93594D01*
X225691Y93594D01*
X228445Y92453D01*
X230553Y90345D01*
X231694Y87591D01*
X231694Y84609D01*
X230553Y81855D01*
X228445Y79747D01*
X225691Y78606D01*
X222709Y78606D01*
G37*
%LPD*%
%LPC*%
G36*
X197309Y78606D02*
X197309Y78606D01*
X194555Y79747D01*
X192447Y81855D01*
X191306Y84609D01*
X191306Y87591D01*
X192447Y90345D01*
X194555Y92453D01*
X197309Y93594D01*
X200291Y93594D01*
X203045Y92453D01*
X205153Y90345D01*
X206294Y87591D01*
X206294Y84609D01*
X205153Y81855D01*
X203045Y79747D01*
X200291Y78606D01*
X197309Y78606D01*
G37*
%LPD*%
%LPC*%
G36*
X247811Y313181D02*
X247811Y313181D01*
X245281Y315711D01*
X245281Y319289D01*
X247811Y321819D01*
X251389Y321819D01*
X253919Y319289D01*
X253919Y315711D01*
X251389Y313181D01*
X247811Y313181D01*
G37*
%LPD*%
%LPC*%
G36*
X173471Y262381D02*
X173471Y262381D01*
X170941Y264911D01*
X170941Y268489D01*
X173471Y271019D01*
X177049Y271019D01*
X179579Y268489D01*
X179579Y264911D01*
X177049Y262381D01*
X173471Y262381D01*
G37*
%LPD*%
%LPC*%
G36*
X572251Y243331D02*
X572251Y243331D01*
X569721Y245861D01*
X569721Y249439D01*
X572251Y251969D01*
X575829Y251969D01*
X578359Y249439D01*
X578359Y245861D01*
X575829Y243331D01*
X572251Y243331D01*
G37*
%LPD*%
%LPC*%
G36*
X412231Y224281D02*
X412231Y224281D01*
X409701Y226811D01*
X409701Y230389D01*
X412231Y232919D01*
X415809Y232919D01*
X418339Y230389D01*
X418339Y226811D01*
X415809Y224281D01*
X412231Y224281D01*
G37*
%LPD*%
%LPC*%
G36*
X59171Y211581D02*
X59171Y211581D01*
X56641Y214111D01*
X56641Y217689D01*
X59171Y220219D01*
X62749Y220219D01*
X65279Y217689D01*
X65279Y214111D01*
X62749Y211581D01*
X59171Y211581D01*
G37*
%LPD*%
%LPC*%
G36*
X54091Y236981D02*
X54091Y236981D01*
X51561Y239511D01*
X51561Y243089D01*
X54091Y245619D01*
X57669Y245619D01*
X60199Y243089D01*
X60199Y239511D01*
X57669Y236981D01*
X54091Y236981D01*
G37*
%LPD*%
%LPC*%
G36*
X252211Y160781D02*
X252211Y160781D01*
X249681Y163311D01*
X249681Y166889D01*
X252211Y169419D01*
X255789Y169419D01*
X258319Y166889D01*
X258319Y163311D01*
X255789Y160781D01*
X252211Y160781D01*
G37*
%LPD*%
%LPC*%
G36*
X214111Y236981D02*
X214111Y236981D01*
X211581Y239511D01*
X211581Y243089D01*
X214111Y245619D01*
X217689Y245619D01*
X220219Y243089D01*
X220219Y239511D01*
X217689Y236981D01*
X214111Y236981D01*
G37*
%LPD*%
%LPC*%
G36*
X122987Y217423D02*
X122987Y217423D01*
X120903Y219507D01*
X120903Y222453D01*
X122987Y224537D01*
X125933Y224537D01*
X128017Y222453D01*
X128017Y219507D01*
X125933Y217423D01*
X122987Y217423D01*
G37*
%LPD*%
%LPC*%
G36*
X168707Y194563D02*
X168707Y194563D01*
X166623Y196647D01*
X166623Y199593D01*
X168707Y201677D01*
X171653Y201677D01*
X173737Y199593D01*
X173737Y196647D01*
X171653Y194563D01*
X168707Y194563D01*
G37*
%LPD*%
%LPC*%
G36*
X383499Y256499D02*
X383499Y256499D01*
X383499Y263220D01*
X384662Y262842D01*
X386001Y262160D01*
X387215Y261277D01*
X388277Y260215D01*
X389160Y259001D01*
X389842Y257662D01*
X390220Y256499D01*
X383499Y256499D01*
G37*
%LPD*%
%LPC*%
G36*
X371780Y256499D02*
X371780Y256499D01*
X372158Y257662D01*
X372840Y259001D01*
X373723Y260215D01*
X374785Y261277D01*
X375999Y262160D01*
X377338Y262842D01*
X378501Y263220D01*
X378501Y256499D01*
X371780Y256499D01*
G37*
%LPD*%
%LPC*%
G36*
X383499Y251501D02*
X383499Y251501D01*
X390220Y251501D01*
X389842Y250338D01*
X389160Y248999D01*
X388277Y247785D01*
X387215Y246723D01*
X386001Y245840D01*
X384662Y245158D01*
X383499Y244780D01*
X383499Y251501D01*
G37*
%LPD*%
%LPC*%
G36*
X377338Y245158D02*
X377338Y245158D01*
X375999Y245840D01*
X374785Y246723D01*
X373723Y247785D01*
X372840Y248999D01*
X372158Y250338D01*
X371780Y251501D01*
X378501Y251501D01*
X378501Y244780D01*
X377338Y245158D01*
G37*
%LPD*%
%LPC*%
G36*
X226422Y113722D02*
X226422Y113722D01*
X226422Y119993D01*
X226756Y119927D01*
X228351Y119266D01*
X229787Y118307D01*
X231007Y117087D01*
X231966Y115651D01*
X232627Y114056D01*
X232693Y113722D01*
X226422Y113722D01*
G37*
%LPD*%
%LPC*%
G36*
X226422Y109278D02*
X226422Y109278D01*
X232693Y109278D01*
X232627Y108944D01*
X231966Y107349D01*
X231007Y105913D01*
X229787Y104693D01*
X228351Y103734D01*
X226756Y103073D01*
X226422Y103007D01*
X226422Y109278D01*
G37*
%LPD*%
%LPC*%
G36*
X215707Y113722D02*
X215707Y113722D01*
X215773Y114056D01*
X216434Y115651D01*
X217393Y117087D01*
X218613Y118307D01*
X220049Y119266D01*
X221644Y119927D01*
X221978Y119993D01*
X221978Y113722D01*
X215707Y113722D01*
G37*
%LPD*%
%LPC*%
G36*
X221644Y103073D02*
X221644Y103073D01*
X220049Y103734D01*
X218613Y104693D01*
X217393Y105913D01*
X216434Y107349D01*
X215773Y108944D01*
X215707Y109278D01*
X221978Y109278D01*
X221978Y103007D01*
X221644Y103073D01*
G37*
%LPD*%
D10*
X38100Y406400D03*
X38100Y38100D03*
X584200Y38100D03*
X584200Y406400D03*
D11*
X381000Y228600D03*
X381000Y254000D03*
X381000Y203200D03*
D12*
X71800Y86100D03*
X71800Y111500D03*
X97200Y86100D03*
X97200Y111500D03*
X122600Y86100D03*
X122600Y111500D03*
X148000Y86100D03*
X148000Y111500D03*
X173400Y86100D03*
X173400Y111500D03*
X198800Y86100D03*
X198800Y111500D03*
X224200Y86100D03*
X224200Y111500D03*
X249600Y86100D03*
X249600Y111500D03*
X275000Y86100D03*
X275000Y111500D03*
X300400Y86100D03*
X300400Y111500D03*
X325800Y86100D03*
X325800Y111500D03*
X351200Y86100D03*
X351200Y111500D03*
X376600Y86100D03*
X376600Y111500D03*
X402000Y86100D03*
X402000Y111500D03*
X427400Y86100D03*
X427400Y111500D03*
X452800Y86100D03*
X452800Y111500D03*
X478200Y86100D03*
X478200Y111500D03*
X503600Y86100D03*
X503600Y111500D03*
X71800Y340100D03*
X71800Y365500D03*
X97200Y340100D03*
X97200Y365500D03*
X122600Y340100D03*
X122600Y365500D03*
X148000Y340100D03*
X148000Y365500D03*
X173400Y340100D03*
X173400Y365500D03*
X198800Y340100D03*
X198800Y365500D03*
X224200Y340100D03*
X224200Y365500D03*
X249600Y340100D03*
X249600Y365500D03*
X275000Y340100D03*
X275000Y365500D03*
X300400Y340100D03*
X300400Y365500D03*
X325800Y340100D03*
X325800Y365500D03*
X351200Y340100D03*
X351200Y365500D03*
X376600Y340100D03*
X376600Y365500D03*
X402000Y340100D03*
X402000Y365500D03*
X427400Y340100D03*
X427400Y365500D03*
X452800Y340100D03*
X452800Y365500D03*
X478200Y340100D03*
X478200Y365500D03*
X503600Y340100D03*
X503600Y365500D03*
D13*
X411480Y254000D03*
X292100Y208280D03*
X284480Y259080D03*
D14*
X139700Y195580D03*
D15*
X228600Y165100D03*
D13*
X574040Y247650D03*
X414020Y228600D03*
X249600Y317500D03*
X55880Y241300D03*
X60960Y215900D03*
D14*
X124460Y220980D03*
D13*
X175260Y266700D03*
X254000Y165100D03*
D14*
X170180Y198120D03*
D13*
X215900Y241300D03*
M02*
