G04 EAGLE Gerber RS-274X export*
G75*
%MOMM*%
%FSLAX34Y34*%
%LPD*%
%INBottom Copper*%
%IPPOS*%
%AMOC8*
5,1,8,0,0,1.08239X$1,22.5*%
G01*
%ADD10C,1.016000*%
%ADD11C,4.445000*%
%ADD12C,2.000000*%
%ADD13R,1.524000X1.524000*%
%ADD14P,1.649562X8X22.500000*%
%ADD15C,0.254000*%
%ADD16C,0.609600*%
%ADD17C,0.457200*%
%ADD18C,0.904800*%


D10*
X520700Y406400D03*
X520700Y38100D03*
X95250Y38100D03*
D11*
X38100Y406400D03*
X38100Y38100D03*
X584200Y38100D03*
X584200Y406400D03*
D12*
X381000Y228600D03*
X381000Y254000D03*
X381000Y203200D03*
D13*
X71800Y86100D03*
D14*
X71800Y111500D03*
X97200Y86100D03*
X97200Y111500D03*
X122600Y86100D03*
X122600Y111500D03*
X148000Y86100D03*
X148000Y111500D03*
X173400Y86100D03*
X173400Y111500D03*
X198800Y86100D03*
X198800Y111500D03*
X224200Y86100D03*
X224200Y111500D03*
X249600Y86100D03*
X249600Y111500D03*
X275000Y86100D03*
X275000Y111500D03*
X300400Y86100D03*
X300400Y111500D03*
X325800Y86100D03*
X325800Y111500D03*
X351200Y86100D03*
X351200Y111500D03*
X376600Y86100D03*
X376600Y111500D03*
X402000Y86100D03*
X402000Y111500D03*
X427400Y86100D03*
X427400Y111500D03*
X452800Y86100D03*
X452800Y111500D03*
X478200Y86100D03*
X478200Y111500D03*
X503600Y86100D03*
X503600Y111500D03*
D13*
X71800Y340100D03*
D14*
X71800Y365500D03*
X97200Y340100D03*
X97200Y365500D03*
X122600Y340100D03*
X122600Y365500D03*
X148000Y340100D03*
X148000Y365500D03*
X173400Y340100D03*
X173400Y365500D03*
X198800Y340100D03*
X198800Y365500D03*
X224200Y340100D03*
X224200Y365500D03*
X249600Y340100D03*
X249600Y365500D03*
X275000Y340100D03*
X275000Y365500D03*
X300400Y340100D03*
X300400Y365500D03*
X325800Y340100D03*
X325800Y365500D03*
X351200Y340100D03*
X351200Y365500D03*
X376600Y340100D03*
X376600Y365500D03*
X402000Y340100D03*
X402000Y365500D03*
X427400Y340100D03*
X427400Y365500D03*
X452800Y340100D03*
X452800Y365500D03*
X478200Y340100D03*
X478200Y365500D03*
X503600Y340100D03*
X503600Y365500D03*
D15*
X411480Y254000D02*
X381000Y254000D01*
D16*
X411480Y254000D03*
X292100Y208280D03*
X284480Y259080D03*
D17*
X139700Y195580D03*
D18*
X228600Y165100D03*
D16*
X574040Y247650D03*
D15*
X414020Y228600D02*
X381000Y228600D01*
D16*
X414020Y228600D03*
X249600Y317500D03*
X55880Y241300D03*
X60960Y215900D03*
D17*
X124460Y220980D03*
D16*
X175260Y266700D03*
X254000Y165100D03*
D17*
X170180Y198120D03*
D16*
X215900Y241300D03*
D15*
X325800Y162300D02*
X376600Y111500D01*
X325800Y162300D02*
X282200Y162300D01*
X215900Y228600D01*
X215900Y241300D01*
M02*
