G04 EAGLE Gerber RS-274X export*
G75*
%MOMM*%
%FSLAX34Y34*%
%LPD*%
%INSilkscreen Bottom*%
%IPPOS*%
%AMOC8*
5,1,8,0,0,1.08239X$1,22.5*%
G01*
%ADD10C,0.050800*%
%ADD11C,0.127000*%


D10*
X393954Y198770D02*
X393954Y196286D01*
X399542Y196286D01*
X399542Y198770D01*
X397058Y198149D02*
X397058Y196286D01*
X399542Y201030D02*
X393954Y201030D01*
X393954Y204134D02*
X399542Y201030D01*
X399542Y204134D02*
X393954Y204134D01*
X393954Y208251D02*
X399542Y206389D01*
X399542Y210114D02*
X393954Y208251D01*
X397058Y223369D02*
X397058Y224300D01*
X393954Y224300D01*
X393954Y222437D01*
X393956Y222367D01*
X393962Y222298D01*
X393972Y222229D01*
X393985Y222161D01*
X394003Y222093D01*
X394024Y222027D01*
X394049Y221962D01*
X394077Y221898D01*
X394109Y221836D01*
X394144Y221776D01*
X394183Y221718D01*
X394225Y221663D01*
X394270Y221609D01*
X394318Y221559D01*
X394368Y221511D01*
X394422Y221466D01*
X394477Y221424D01*
X394535Y221385D01*
X394595Y221350D01*
X394657Y221318D01*
X394721Y221290D01*
X394786Y221265D01*
X394852Y221244D01*
X394920Y221226D01*
X394988Y221213D01*
X395057Y221203D01*
X395126Y221197D01*
X395196Y221195D01*
X395196Y221196D02*
X398300Y221196D01*
X398300Y221195D02*
X398370Y221197D01*
X398439Y221203D01*
X398508Y221213D01*
X398576Y221226D01*
X398644Y221244D01*
X398710Y221265D01*
X398775Y221290D01*
X398839Y221318D01*
X398901Y221350D01*
X398961Y221385D01*
X399019Y221424D01*
X399074Y221466D01*
X399128Y221511D01*
X399178Y221559D01*
X399226Y221609D01*
X399271Y221663D01*
X399313Y221718D01*
X399352Y221776D01*
X399387Y221836D01*
X399419Y221898D01*
X399447Y221962D01*
X399472Y222027D01*
X399493Y222093D01*
X399511Y222161D01*
X399524Y222229D01*
X399534Y222298D01*
X399540Y222367D01*
X399542Y222437D01*
X399542Y224300D01*
X399542Y227048D02*
X393954Y227048D01*
X393954Y230152D02*
X399542Y227048D01*
X399542Y230152D02*
X393954Y230152D01*
X393954Y232900D02*
X399542Y232900D01*
X399542Y234452D01*
X399540Y234528D01*
X399535Y234604D01*
X399525Y234680D01*
X399512Y234755D01*
X399495Y234829D01*
X399475Y234903D01*
X399451Y234975D01*
X399424Y235046D01*
X399393Y235116D01*
X399359Y235184D01*
X399321Y235250D01*
X399280Y235314D01*
X399237Y235377D01*
X399190Y235437D01*
X399140Y235494D01*
X399087Y235549D01*
X399032Y235602D01*
X398975Y235652D01*
X398915Y235699D01*
X398852Y235742D01*
X398788Y235783D01*
X398722Y235821D01*
X398654Y235855D01*
X398584Y235886D01*
X398513Y235913D01*
X398440Y235937D01*
X398367Y235957D01*
X398293Y235974D01*
X398218Y235987D01*
X398142Y235997D01*
X398066Y236002D01*
X397990Y236004D01*
X395506Y236004D01*
X395427Y236002D01*
X395349Y235996D01*
X395271Y235986D01*
X395194Y235972D01*
X395117Y235954D01*
X395041Y235933D01*
X394967Y235907D01*
X394894Y235878D01*
X394823Y235845D01*
X394753Y235809D01*
X394685Y235769D01*
X394619Y235726D01*
X394556Y235679D01*
X394495Y235630D01*
X394437Y235577D01*
X394381Y235521D01*
X394328Y235463D01*
X394279Y235402D01*
X394232Y235339D01*
X394189Y235273D01*
X394149Y235205D01*
X394113Y235136D01*
X394080Y235064D01*
X394051Y234991D01*
X394025Y234917D01*
X394004Y234841D01*
X393986Y234764D01*
X393972Y234687D01*
X393962Y234609D01*
X393956Y234531D01*
X393954Y234452D01*
X393954Y232900D01*
X399542Y247812D02*
X393954Y249675D01*
X399542Y251537D01*
X399542Y254064D02*
X393954Y254064D01*
X393954Y253443D02*
X393954Y254685D01*
X399542Y254685D02*
X399542Y253443D01*
X399542Y257084D02*
X393954Y257084D01*
X393954Y260188D02*
X399542Y257084D01*
X399542Y260188D02*
X393954Y260188D01*
D11*
X406400Y389467D02*
X406400Y67733D01*
X406400Y389467D02*
X406392Y390090D01*
X406369Y390713D01*
X406331Y391335D01*
X406278Y391956D01*
X406209Y392575D01*
X406125Y393192D01*
X406026Y393808D01*
X405912Y394420D01*
X405783Y395030D01*
X405639Y395636D01*
X405481Y396239D01*
X405307Y396837D01*
X405119Y397431D01*
X404917Y398020D01*
X404700Y398604D01*
X404468Y399183D01*
X404223Y399756D01*
X403963Y400322D01*
X403690Y400882D01*
X403403Y401436D01*
X403103Y401982D01*
X402789Y402520D01*
X402463Y403051D01*
X402123Y403573D01*
X401771Y404087D01*
X401406Y404592D01*
X401029Y405088D01*
X400639Y405575D01*
X400238Y406051D01*
X399826Y406518D01*
X399402Y406975D01*
X398967Y407421D01*
X398521Y407857D01*
X398065Y408281D01*
X397598Y408694D01*
X397121Y409095D01*
X396635Y409485D01*
X396139Y409862D01*
X395634Y410227D01*
X395121Y410580D01*
X394599Y410920D01*
X394068Y411247D01*
X393530Y411561D01*
X392984Y411862D01*
X392431Y412149D01*
X391871Y412423D01*
X391305Y412683D01*
X390732Y412928D01*
X390154Y413160D01*
X389570Y413378D01*
X388981Y413581D01*
X388387Y413769D01*
X387789Y413943D01*
X387186Y414102D01*
X386580Y414246D01*
X385971Y414376D01*
X385358Y414490D01*
X384743Y414590D01*
X384125Y414674D01*
X383506Y414743D01*
X382885Y414797D01*
X382263Y414836D01*
X381641Y414859D01*
X381018Y414867D01*
X380395Y414860D01*
X379772Y414837D01*
X379150Y414800D01*
X378529Y414747D01*
X377910Y414678D01*
X377292Y414595D01*
X376677Y414496D01*
X376064Y414383D01*
X375455Y414254D01*
X374848Y414111D01*
X374246Y413952D01*
X373647Y413779D01*
X373053Y413592D01*
X372463Y413389D01*
X371879Y413173D01*
X371300Y412942D01*
X370727Y412697D01*
X370161Y412438D01*
X369600Y412165D01*
X369047Y411879D01*
X369047Y411878D02*
X67422Y251012D01*
X66881Y250715D01*
X66348Y250405D01*
X65822Y250082D01*
X65304Y249747D01*
X64795Y249399D01*
X64294Y249038D01*
X63802Y248666D01*
X63320Y248282D01*
X62846Y247886D01*
X62383Y247479D01*
X61929Y247061D01*
X61486Y246632D01*
X61053Y246192D01*
X60632Y245742D01*
X60221Y245282D01*
X59821Y244812D01*
X59433Y244332D01*
X59057Y243843D01*
X58693Y243345D01*
X58341Y242838D01*
X58001Y242323D01*
X57674Y241800D01*
X57360Y241269D01*
X57059Y240731D01*
X56771Y240185D01*
X56496Y239633D01*
X56235Y239074D01*
X55988Y238509D01*
X55754Y237938D01*
X55534Y237362D01*
X55328Y236780D01*
X55137Y236194D01*
X54959Y235603D01*
X54797Y235008D01*
X54648Y234409D01*
X54514Y233807D01*
X54395Y233201D01*
X54291Y232593D01*
X54201Y231983D01*
X54127Y231371D01*
X54067Y230757D01*
X54022Y230141D01*
X53992Y229525D01*
X53977Y228908D01*
X53977Y228292D01*
X53992Y227675D01*
X54022Y227059D01*
X54067Y226443D01*
X54127Y225829D01*
X54201Y225217D01*
X54291Y224607D01*
X54395Y223999D01*
X54514Y223393D01*
X54648Y222791D01*
X54797Y222192D01*
X54959Y221597D01*
X55137Y221006D01*
X55328Y220420D01*
X55534Y219838D01*
X55754Y219262D01*
X55988Y218691D01*
X56235Y218126D01*
X56496Y217567D01*
X56771Y217015D01*
X57059Y216469D01*
X57360Y215931D01*
X57674Y215400D01*
X58001Y214877D01*
X58341Y214362D01*
X58693Y213855D01*
X59057Y213357D01*
X59433Y212868D01*
X59821Y212388D01*
X60221Y211918D01*
X60632Y211458D01*
X61053Y211008D01*
X61486Y210568D01*
X61929Y210139D01*
X62383Y209721D01*
X62846Y209314D01*
X63320Y208918D01*
X63802Y208534D01*
X64294Y208162D01*
X64795Y207801D01*
X65304Y207453D01*
X65822Y207118D01*
X66348Y206795D01*
X66881Y206485D01*
X67422Y206188D01*
X369047Y45322D01*
X369047Y45321D02*
X369600Y45035D01*
X370161Y44762D01*
X370727Y44503D01*
X371300Y44258D01*
X371879Y44027D01*
X372463Y43811D01*
X373053Y43608D01*
X373647Y43421D01*
X374246Y43248D01*
X374848Y43089D01*
X375455Y42946D01*
X376064Y42817D01*
X376677Y42704D01*
X377292Y42605D01*
X377910Y42522D01*
X378529Y42453D01*
X379150Y42400D01*
X379772Y42363D01*
X380395Y42340D01*
X381018Y42333D01*
X381641Y42341D01*
X382263Y42364D01*
X382885Y42403D01*
X383506Y42457D01*
X384125Y42526D01*
X384743Y42610D01*
X385358Y42710D01*
X385971Y42824D01*
X386580Y42954D01*
X387186Y43098D01*
X387789Y43257D01*
X388387Y43431D01*
X388981Y43619D01*
X389570Y43822D01*
X390154Y44040D01*
X390732Y44272D01*
X391305Y44517D01*
X391871Y44777D01*
X392431Y45051D01*
X392984Y45338D01*
X393530Y45639D01*
X394068Y45953D01*
X394599Y46280D01*
X395121Y46620D01*
X395634Y46973D01*
X396139Y47338D01*
X396635Y47715D01*
X397121Y48105D01*
X397598Y48506D01*
X398065Y48919D01*
X398521Y49343D01*
X398967Y49779D01*
X399402Y50225D01*
X399826Y50682D01*
X400238Y51149D01*
X400639Y51625D01*
X401029Y52112D01*
X401406Y52608D01*
X401771Y53113D01*
X402123Y53627D01*
X402463Y54149D01*
X402789Y54680D01*
X403103Y55218D01*
X403403Y55764D01*
X403690Y56318D01*
X403963Y56878D01*
X404223Y57444D01*
X404468Y58017D01*
X404700Y58596D01*
X404917Y59180D01*
X405119Y59769D01*
X405307Y60363D01*
X405481Y60961D01*
X405639Y61564D01*
X405783Y62170D01*
X405912Y62780D01*
X406026Y63393D01*
X406125Y64008D01*
X406209Y64625D01*
X406278Y65244D01*
X406331Y65865D01*
X406369Y66487D01*
X406392Y67110D01*
X406400Y67733D01*
M02*
